<?xml version="1.0" standalone="no"?>
<!DOCTYPE svg PUBLIC "-//W3C//DTD SVG 20010904//EN"
 "http://www.w3.org/TR/2001/REC-SVG-20010904/DTD/svg10.dtd">
<svg version="1.0" xmlns="http://www.w3.org/2000/svg"
 width="512.000000pt" height="512.000000pt" viewBox="0 0 512.000000 512.000000"
 preserveAspectRatio="xMidYMid meet">

<g transform="translate(0.000000,512.000000) scale(0.100000,-0.100000)"
fill="currentColor" stroke="none">
<path d="M1200 4627 c-49 -16 -133 -102 -148 -153 -28 -94 -8 -169 63 -239
102 -103 243 -101 338 5 93 103 90 228 -8 325 -70 71 -152 91 -245 62z m135
-172 c50 -49 15 -135 -55 -135 -41 0 -80 39 -80 80 0 41 39 80 80 80 19 0 40
-9 55 -25z"/>
<path d="M1551 4053 c-99 -126 -172 -280 -186 -397 l-7 -56 79 0 79 0 12 61
c15 79 68 187 137 274 30 39 58 76 61 83 7 15 -82 112 -102 112 -6 0 -39 -35
-73 -77z"/>
<path d="M640 4067 c-19 -6 -58 -34 -85 -62 -71 -70 -91 -145 -63 -239 16 -55
99 -138 154 -154 94 -28 169 -8 239 63 98 97 101 222 8 325 -65 72 -158 97
-253 67z m135 -172 c50 -49 15 -135 -55 -135 -41 0 -80 39 -80 80 0 41 39 80
80 80 19 0 40 -9 55 -25z"/>
<path d="M4760 3736 c-30 -12 -311 -140 -625 -283 -313 -142 -589 -268 -613
-278 -104 -45 -171 -168 -158 -291 4 -34 3 -65 -1 -67 -5 -3 -40 5 -78 18
-311 104 -954 18 -1665 -224 -96 -32 -176 -58 -178 -56 -1 1 -7 29 -13 63 -20
114 17 259 97 379 24 36 44 69 44 72 0 11 -95 101 -106 101 -17 0 -92 -108
-129 -185 -63 -132 -84 -260 -64 -392 7 -48 14 -92 14 -96 0 -5 -36 -23 -80
-41 -44 -18 -125 -54 -180 -79 -55 -25 -101 -45 -102 -43 -7 7 -43 203 -52
288 -6 54 -11 175 -12 270 0 106 -5 185 -12 205 -22 60 -72 117 -128 148 -47
26 -64 30 -129 30 -58 0 -85 -6 -116 -22 -53 -28 -99 -74 -127 -127 -21 -40
-22 -53 -25 -371 -2 -215 -7 -334 -14 -342 -6 -7 -24 -13 -40 -13 -77 0 -160
-65 -183 -145 -22 -73 -2 -241 50 -421 5 -14 -5 -34 -33 -68 -89 -107 -118
-212 -88 -308 55 -169 175 -356 324 -500 300 -291 719 -448 1197 -448 1012 0
1907 708 2016 1594 20 162 -1 365 -54 537 l-14 46 41 -21 c29 -14 61 -20 111
-21 l70 0 655 318 c360 175 668 330 683 345 51 48 71 99 71 177 0 57 -5 80
-27 122 -70 135 -195 185 -327 129z m141 -146 c22 -12 59 -80 59 -109 0 -11
-10 -31 -22 -45 -14 -16 -217 -120 -516 -266 -272 -132 -495 -240 -497 -240
-1 0 -6 17 -10 37 -8 44 -47 124 -69 142 -9 8 -16 17 -16 21 0 4 129 66 288
138 158 72 384 176 502 231 118 54 225 100 238 100 13 1 32 -4 43 -9z m-4230
-508 l26 -29 6 -229 c8 -340 52 -561 156 -780 105 -220 252 -382 434 -480 l60
-32 -39 -11 c-79 -23 -332 -71 -430 -83 -89 -10 -111 -9 -170 5 -207 51 -346
196 -427 447 -35 108 -64 304 -48 329 5 7 30 17 56 22 77 14 129 51 159 111
l26 52 0 313 c0 343 2 357 58 388 41 23 101 13 133 -23z m3051 -80 c34 -34 46
-94 26 -132 -16 -29 -73 -70 -99 -70 -16 0 -15 3 6 25 68 67 -25 177 -101 120
-27 -21 -36 -18 -29 8 9 27 43 66 70 78 36 16 96 3 127 -29z m-597 -292 c94
-14 157 -36 190 -66 23 -21 27 -31 22 -62 -7 -41 -59 -120 -112 -172 l-35 -34
0 28 c0 59 -24 111 -75 161 -97 98 -222 101 -325 8 -52 -47 -63 -71 -95 -216
-30 -139 -83 -247 -179 -366 -44 -56 -62 -69 -141 -106 -129 -61 -395 -164
-578 -225 l-158 -52 -72 18 c-157 38 -341 156 -438 280 -70 91 -149 231 -149
266 0 9 129 71 279 133 66 28 96 36 99 27 3 -9 79 -119 98 -141 2 -2 30 20 64
49 l60 52 -35 48 c-19 26 -35 52 -35 57 0 10 297 111 482 163 229 65 545 128
753 149 115 12 299 12 380 1z m-120 -255 c15 -14 25 -35 25 -52 -1 -47 -25
-149 -42 -174 -15 -22 -160 -119 -202 -135 -17 -7 -17 -6 -1 26 28 54 55 139
75 235 13 65 24 94 40 107 32 26 76 23 105 -7z m395 -195 c0 -36 -5 -103 -10
-148 -91 -725 -788 -1332 -1644 -1433 -125 -15 -412 -6 -529 15 -312 59 -587
196 -783 391 -65 65 -150 173 -142 180 3 3 40 0 84 -6 96 -14 331 -6 499 16
734 97 1677 447 2220 823 96 66 234 180 266 220 31 37 39 25 39 -58z m-3057
-788 l52 -55 -45 7 c-71 11 -136 35 -165 62 -23 21 -26 31 -22 60 3 19 16 50
27 70 l22 34 39 -61 c22 -34 63 -86 92 -117z"/>
<path d="M564 1803 c17 -97 111 -231 215 -307 27 -20 51 -36 54 -36 4 0 25 27
47 60 l41 61 -76 71 c-54 50 -83 87 -103 129 l-27 59 -79 0 -78 0 6 -37z"/>
<path d="M1440 2000 l0 -80 80 0 80 0 0 80 0 80 -80 0 -80 0 0 -80z"/>
<path d="M160 3520 l0 -80 80 0 80 0 0 80 0 80 -80 0 -80 0 0 -80z"/>
<path d="M1040 3440 l0 -80 80 0 80 0 0 80 0 80 -80 0 -80 0 0 -80z"/>
<path d="M960 2720 l0 -80 80 0 80 0 0 80 0 80 -80 0 -80 0 0 -80z"/>
</g>
</svg>
