<?xml version="1.0" standalone="no"?>
<!DOCTYPE svg PUBLIC "-//W3C//DTD SVG 20010904//EN"
 "http://www.w3.org/TR/2001/REC-SVG-20010904/DTD/svg10.dtd">
<svg version="1.0" xmlns="http://www.w3.org/2000/svg"
 width="512.000000pt" height="512.000000pt" viewBox="0 0 512.000000 512.000000"
 preserveAspectRatio="xMidYMid meet">

<g transform="translate(0.000000,512.000000) scale(0.100000,-0.100000)"
fill="currentColor" stroke="none">
<path d="M3365 4159 c-77 -9 -162 -41 -226 -84 -70 -48 -596 -562 -603 -590
-12 -45 31 -95 80 -95 8 0 73 55 145 121 71 67 131 120 133 118 2 -2 212 -299
466 -659 254 -360 471 -663 482 -672 11 -10 31 -18 45 -18 33 0 73 42 73 77
-1 21 -129 209 -482 708 l-481 679 106 102 c69 67 127 112 164 131 53 26 67
28 168 28 105 0 114 -2 177 -33 131 -64 120 -44 528 -944 200 -442 378 -836
396 -876 l34 -72 -141 -71 c-78 -38 -145 -69 -150 -67 -4 2 -46 55 -91 118
-78 107 -86 115 -120 118 -72 6 -101 -62 -55 -129 13 -19 106 -152 207 -294
101 -143 191 -272 202 -287 l18 -26 -184 -101 c-105 -58 -196 -115 -210 -132
-60 -71 -37 -191 46 -236 30 -16 69 -18 405 -21 233 -2 394 1 430 7 77 15 130
53 166 121 53 102 86 18 -563 1450 -320 707 -598 1315 -617 1352 -100 191
-327 305 -548 277z m1435 -2588 c88 -195 163 -365 166 -378 9 -34 -13 -70 -49
-83 -37 -13 -743 -14 -751 -1 -3 5 90 61 208 126 118 64 222 125 231 136 35
37 22 69 -93 231 -60 84 -117 165 -126 180 l-18 27 129 65 c70 35 131 61 135
57 4 -3 80 -166 168 -360z"/>
<path d="M2323 3289 c-116 -104 -596 -585 -624 -626 -46 -67 -87 -161 -105
-240 l-16 -73 -183 -178 c-100 -97 -187 -187 -194 -199 -25 -48 14 -103 73
-103 24 0 62 32 238 207 115 114 210 217 213 228 34 185 62 244 169 352 80 80
82 81 141 88 137 14 209 10 260 -16 67 -33 90 -67 90 -132 0 -89 -28 -128
-264 -369 -336 -344 -655 -628 -976 -868 -234 -176 -333 -239 -394 -250 -65
-12 -572 -13 -551 -1 8 5 119 41 247 82 l232 73 226 220 c204 200 226 224 225
254 0 44 -32 74 -75 70 -28 -3 -66 -35 -245 -208 l-213 -205 -260 -82 c-265
-84 -293 -97 -323 -155 -31 -59 -3 -147 58 -183 31 -19 51 -20 368 -20 299 0
341 2 388 18 54 19 181 99 311 194 l73 55 42 -30 c104 -75 276 -141 422 -162
150 -22 292 18 398 111 78 69 94 129 43 164 -39 27 -73 19 -124 -32 -26 -25
-72 -58 -103 -71 -104 -48 -278 -27 -445 53 -123 59 -124 47 17 162 203 165
372 318 570 511 l186 183 51 -18 c60 -21 60 -12 5 -182 -19 -58 -34 -111 -34
-120 0 -8 16 -38 37 -68 43 -63 42 -65 -61 -128 -87 -53 -104 -89 -65 -139 14
-18 30 -26 51 -26 49 0 203 101 240 158 28 42 23 108 -12 171 l-30 54 31 96
c17 53 34 124 36 158 6 69 1 64 96 83 281 56 567 231 749 458 68 86 76 126 32
161 -43 34 -64 27 -124 -41 -193 -220 -338 -321 -565 -397 -87 -29 -263 -67
-271 -59 -2 3 17 29 43 59 161 189 143 416 -42 524 -49 30 -174 58 -210 49
-14 -3 -25 -2 -25 2 0 5 72 79 160 164 151 145 161 157 160 192 0 27 -7 42
-26 57 -39 31 -58 26 -121 -30z"/>
</g>
</svg>
